Coordinates
version=1
nRows=8
nColumns=34
inDegrees=yes

Units are S.I. units (second, meters, Newtons, ...)
If the header above contains a line with 'inDegrees', this indicates whether rotational values are in degrees (yes) or radians (no).

endheader
time	pelvis_tilt	pelvis_list	pelvis_rotation	pelvis_tx	pelvis_ty	pelvis_tz	hip_flexion_r	hip_adduction_r	hip_rotation_r	knee_angle_r	ankle_angle_r	subtalar_angle_r	mtp_angle_r	hip_flexion_l	hip_adduction_l	hip_rotation_l	knee_angle_l	ankle_angle_l	subtalar_angle_l	mtp_angle_l	lumbar_extension	lumbar_bending	lumbar_rotation	arm_flex_r	arm_add_r	arm_rot_r	elbow_flex_r	pro_sup_r	arm_flex_l	arm_add_l	arm_rot_l	elbow_flex_l	pro_sup_l
      5.86666670	     -7.23442848	      0.02576153	      2.85302035	      0.80152194	      0.90673262	     -0.08082138	     19.19049080	     -5.32589611	    -13.12666005	     10.70896543	     -0.17583348	    -19.46698881	      0.00000000	     21.64514670	     -3.63344253	     -9.54603066	     14.17601811	      3.83451652	    -10.85248305	      0.00000000	     -6.03401154	      1.11006338	      2.78441879	     62.26850773	    -16.81175792	     30.94901201	     31.35484692	     76.91050974	     57.06196170	     -8.18499043	     15.04128574	     35.52369350	     62.40919134
      5.88333330	     -8.71555839	     -0.20106530	      2.74744881	      0.79318236	      0.89974247	     -0.08051019	     23.62867949	     -5.53504452	    -11.54334885	     14.77589096	     -0.35697033	    -22.62644521	      0.00000000	     25.86685749	     -3.95646468	     -8.24380308	     17.87572089	      4.11877465	    -13.74284666	      0.00000000	     -6.10767701	      1.32198062	      3.22870355	     66.09520098	    -16.87436628	     32.07656975	     30.32264521	     76.54936866	     60.82713851	     -7.61889448	     16.05641904	     34.99582798	     62.38421031
      5.90000000	     -9.99965098	     -0.37037773	      2.58461182	      0.78779733	      0.89391041	     -0.07921954	     28.05190176	     -5.76636955	    -10.13176544	     19.25634990	     -0.67852946	    -25.72043817	      0.00000000	     29.98107943	     -4.28261628	     -7.07316848	     21.86537248	      4.43822217	    -16.24316745	      0.00000000	     -6.40496340	      1.43189994	      3.58568633	     69.70848025	    -16.81948496	     33.19763173	     29.26353677	     76.06460233	     64.48562837	     -7.18064379	     17.22396508	     34.32845046	     62.39860215
      5.91666670	    -10.33780253	     -0.45340018	      2.52956399	      0.78100115	      0.88447234	     -0.08014091	     31.58010888	     -6.18609465	     -9.08720026	     24.12097580	      0.31906562	    -27.46529221	      0.00000000	     33.23193158	     -4.52443881	     -6.10542673	     26.29951984	      5.90260552	    -17.88753764	      0.00000000	     -8.02260357	      1.57641670	      3.81607760	     73.48775171	    -16.82629007	     33.12581465	     29.37215846	     75.84884210	     68.13535231	     -6.73347711	     17.46259105	     34.78455795	     62.42476799
      5.93333330	    -12.37533070	     -0.35409200	      2.29951158	      0.77532968	      0.86941647	     -0.07999165	     37.37791752	     -6.77797662	     -7.74268579	     29.68645153	     -0.31741828	    -30.40298886	      0.00000000	     38.42668483	     -4.63267200	     -5.40870257	     31.03449450	      6.21600772	    -20.23744753	      0.00000000	     -7.07756948	      1.31337998	      4.27046298	     76.83937980	    -16.72976167	     34.28506906	     27.82647331	     75.30057520	     71.82024984	     -6.14444791	     19.11146663	     33.31691333	     62.57872288
      5.95000000	    -13.43484604	     -0.19776380	      2.19020496	      0.76914654	      0.85448362	     -0.07905712	     42.14749974	     -7.41608724	     -6.76456883	     35.28205154	      0.25182839	    -32.49737295	      0.00000000	     42.72362098	     -4.74901390	     -4.87904838	     36.03260988	      7.66507752	    -21.70184788	      0.00000000	     -7.43571839	      1.08407820	      4.51342853	     80.68225027	    -16.43067021	     35.47242294	     26.58475669	     74.58115223	     76.20104470	     -5.74548274	     21.01281969	     31.54297933	     62.72360274
      5.96666670	    -13.69686909	     -0.20681070	      2.26874247	      0.76434582	      0.84304332	     -0.07879328	     45.67263060	     -7.97569092	     -6.28348548	     40.39540918	      1.64856115	    -33.44258579	      0.00000000	     46.18953401	     -4.98189625	     -4.34873871	     41.10122196	      9.58169385	    -22.22645679	      0.00000000	     -8.70769923	      0.95650940	      4.63605763	     85.02698261	    -16.49043301	     39.13453878	     24.97642653	     72.15635027	     81.61333977	     -5.34052736	     26.85419490	     27.80718291	     62.81806088
      5.98333330	    -14.70689875	      0.01443868	      2.27890987	      0.76028719	      0.82801899	     -0.07765107	     49.97612320	     -8.65608817	     -5.68867862	     45.34051978	      3.24828701	    -33.57383028	      0.00000000	     50.14471483	     -5.07283559	     -4.07837437	     45.75447931	     11.24765270	    -22.51787351	      0.00000000	     -8.97611022	      0.70954867	      4.30353541	     88.07955201	    -16.00825641	     39.39532935	     25.71638792	     71.36207473	     84.82424573	     -5.64374033	     27.46667684	     27.96953204	     62.57358509
